# xmcd
#
# Track frame offsets: 
#        150
#        16589
#        31920
#        48453
#
# Disc length: 1017 seconds
#
# Revision: 0
# Processed by: cddbd v1.5.2PL0 Copyright (c) Steve Scherf et al.
# Submitted via: ExactAudioCopy v0.99pb4
#
DISCID=2203f704
DTITLE=Mayor's Destiny - Cross Your Heart
DYEAR=2008
DGENRE=New Modern Country
TTITLE0=Cross Your Heart (Radio Edit)
TTITLE1=She's Get High
TTITLE2=Cross Your Heart (Unplugged Version)
TTITLE3=Cross Your Heart (Extended Version)
EXTD=
EXTT0=
EXTT1=
EXTT2=
EXTT3=
PLAYORDER=
